<svg xmlns="http://www.w3.org/2000/svg" height="48" viewBox="0 96 960 960" width="48"><path d="M52.755 973q-15.905 0-25.83-10.4Q17 952.199 17 936.825q0-15.375 9.925-25.6Q36.85 901 52.755 901h854.49q15.905 0 25.83 10.289 9.925 10.29 9.925 25.5 0 15.211-9.925 25.711-9.925 10.5-25.83 10.5H52.755ZM149 841q-39.05 0-66.525-27.475Q55 786.05 55 747V285q0-39.463 27.475-67.231Q109.95 190 149 190h662q39.463 0 67.231 27.769Q906 245.537 906 285v462q0 39.05-27.769 66.525Q850.463 841 811 841H149Zm0-94h662V285H149v462Zm0 0V285v462Z"/></svg>