<svg xmlns="http://www.w3.org/2000/svg" height="48" viewBox="0 96 960 960" width="48"><path d="M279.982 649q14.018 0 23.518-9.482 9.5-9.483 9.5-23.5 0-14.018-9.482-23.518-9.483-9.5-23.5-9.5-14.018 0-23.518 9.482-9.5 9.483-9.5 23.5 0 14.018 9.482 23.518 9.483 9.5 23.5 9.5Zm0-160q14.018 0 23.518-9.482 9.5-9.483 9.5-23.5 0-14.018-9.482-23.518-9.483-9.5-23.5-9.5-14.018 0-23.518 9.482-9.5 9.483-9.5 23.5 0 14.018 9.482 23.518 9.483 9.5 23.5 9.5ZM360 646h360v-60H360v60Zm0-160h360v-60H360v60Zm-30 450v-80H140q-24 0-42-18t-18-42V276q0-24 18-42t42-18h680q24 0 42 18t18 42v520q0 24-18 42t-42 18H630v80H330ZM140 796h680V276H140v520Zm0 0V276v520Z"/></svg>