<svg xmlns="http://www.w3.org/2000/svg" xmlns:xlink="http://www.w3.org/1999/xlink" fill="none" version="1.1" width="1024" height="1024" viewBox="0 0 1024 1024"><defs><clipPath id="master_svg0_1_002632"><rect x="0" y="0" width="1024" height="1024" rx="0"/></clipPath><filter id="master_svg1_1_002635/1_002621" filterUnits="objectBoundingBox" color-interpolation-filters="sRGB" x="-20" y="-16" width="329" height="757"><feFlood flood-opacity="0" result="BackgroundImageFix"/><feColorMatrix in="SourceAlpha" type="matrix" values="0 0 0 0 0 0 0 0 0 0 0 0 0 0 0 0 0 0 127 0"/><feOffset dy="4" dx="0"/><feGaussianBlur stdDeviation="5"/><feColorMatrix type="matrix" values="0 0 0 0 0 0 0 0 0 0 0 0 0 0 0 0 0 0 0.3019607961177826 0"/><feBlend mode="normal" in2="BackgroundImageFix" result="effect1_dropShadow"/><feBlend mode="normal" in="SourceGraphic" in2="effect1_dropShadow" result="shape"/></filter><filter id="master_svg2_1_002635/1_67713" filterUnits="objectBoundingBox" color-interpolation-filters="sRGB" x="-20" y="-16" width="329" height="757"><feFlood flood-opacity="0" result="BackgroundImageFix"/><feColorMatrix in="SourceAlpha" type="matrix" values="0 0 0 0 0 0 0 0 0 0 0 0 0 0 0 0 0 0 127 0"/><feOffset dy="4" dx="0"/><feGaussianBlur stdDeviation="5"/><feColorMatrix type="matrix" values="0 0 0 0 0 0 0 0 0 0 0 0 0 0 0 0 0 0 0.3019607961177826 0"/><feBlend mode="normal" in2="BackgroundImageFix" result="effect1_dropShadow"/><feBlend mode="normal" in="SourceGraphic" in2="effect1_dropShadow" result="shape"/></filter></defs><g style="mix-blend-mode:passthrough" clip-path="url(#master_svg0_1_002632)"><rect x="0" y="0" width="1024" height="1024" rx="0" fill="#FFFFFF" fill-opacity="0"/><g style="mix-blend-mode:passthrough"><g style="mix-blend-mode:passthrough" filter="url(#master_svg1_1_002635/1_002621)"><path d="M541,672.214C541,682.677,546.45103,692.384,555.3847,697.83L783.44,836.852C803.432,849.039,829.056,834.65,829.056,811.237L829.056,207.2327C829.056,183.6474,803.0930000000001,169.2859,783.114,181.81889999999999L555.0581999999999,324.876C546.31065,330.363,541,339.964,541,350.28999999999996L541,672.214Z" fill="#FFFFFF" fill-opacity="1"/></g><g style="mix-blend-mode:passthrough" transform="matrix(-1,0,0,1,966,0)" filter="url(#master_svg2_1_002635/1_67713)"><path d="M483,672.214C483,682.677,488.45103,692.384,497.3847,697.83L725.44,836.852C745.432,849.039,771.056,834.65,771.056,811.237L771.056,207.2327C771.056,183.6474,745.0930000000001,169.2859,725.114,181.81889999999999L497.0582,324.876C488.31065,330.363,483,339.964,483,350.28999999999996L483,672.214Z" fill="#FFFFFF" fill-opacity="1"/></g></g></g></svg>